# xmcd CD database file
#
# Track frame offsets:
#	150
#	20137
#	43820
#	65420
#	88970
#	117470
#	139070
#	156595
#	172045
#	184967
#	198842
#	212490
#	229572
#	246412
#
# Disc length: 3445 seconds
#
# Revision: 0
# Processed by: cddbd v1.5.2PL0 Copyright (c) Steve Scherf et al.
# Submitted via: CDex 1.70beta2
#
DISCID=d40d730e
DTITLE=Apassionata - Kiss of Fire
DYEAR=2000
DGENRE=New Age
TTITLE0=Kiss of Fire
TTITLE1=Recuerdos de un Baile
TTITLE2=Konfetochki, Baranochki
TTITLE3=Waltz Medley
TTITLE4=La Cumparsita
TTITLE5=My Favorite Things
TTITLE6=Soir de Pluie
TTITLE7=Dreams of the Night
TTITLE8=Midnight Tango
TTITLE9=Twilight Waltz
TTITLE10=Thermopolis
TTITLE11=Habanera
TTITLE12=Anagara
TTITLE13=Chopin Tango
EXTD=YEAR: 2000
EXTT0=
EXTT1=
EXTT2=
EXTT3=
EXTT4=
EXTT5=
EXTT6=
EXTT7=
EXTT8=
EXTT9=
EXTT10=
EXTT11=
EXTT12=
EXTT13=
PLAYORDER=
